<?xml version="1.0" encoding="UTF-8"?>
<svg version="1.1" xmlns="http://www.w3.org/2000/svg" width="24" height="24">
<path d="M0 0 C0.66 0 1.32 0 2 0 C2 0.66 2 1.32 2 2 C2.66 2 3.32 2 4 2 C4 2.66 4 3.32 4 4 C4.66 4 5.32 4 6 4 C6.33 4.66 6.66 5.32 7 6 C8.32 6 9.64 6 11 6 C11.33 5.34 11.66 4.68 12 4 C12.66 4 13.32 4 14 4 C14 3.34 14 2.68 14 2 C14.66 2 15.32 2 16 2 C16 1.34 16 0.68 16 0 C19.875 1.75 19.875 1.75 21 4 C21.203125 6.2421875 21.203125 6.2421875 21.25 8.875 C21.27578125 9.73867187 21.3015625 10.60234375 21.328125 11.4921875 C20.93690173 14.48225103 20.07073811 15.83879275 18 18 C17.34 18 16.68 18 16 18 C16 17.01 16 16.02 16 15 C15.34 15 14.68 15 14 15 C14 14.34 14 13.68 14 13 C13.34 13 12.68 13 12 13 C12 12.34 12 11.68 12 11 C11.34 11 10.68 11 10 11 C10 13.97 10 16.94 10 20 C9.34 20 8.68 20 8 20 C8 17.03 8 14.06 8 11 C7.34 11 6.68 11 6 11 C6 11.66 6 12.32 6 13 C5.34 13 4.68 13 4 13 C4 13.66 4 14.32 4 15 C3.34 15 2.68 15 2 15 C2 15.99 2 16.98 2 18 C-1 17 -1 17 -3 14 C-3.30078125 11.66015625 -3.30078125 11.66015625 -3.3125 9.0625 C-3.32925781 8.20785156 -3.34601563 7.35320313 -3.36328125 6.47265625 C-2.93012911 3.52442718 -2.04225211 2.14163177 0 0 Z M-1 6 C-1 7.65 -1 9.3 -1 11 C-0.67 11 -0.34 11 0 11 C0 9.35 0 7.7 0 6 C-0.33 6 -0.66 6 -1 6 Z M18 6 C18 7.65 18 9.3 18 11 C18.33 11 18.66 11 19 11 C19 9.35 19 7.7 19 6 C18.67 6 18.34 6 18 6 Z M2 7 C3 11 3 11 3 11 Z M5 7 C6 10 6 10 6 10 Z M12 7 C13 10 13 10 13 10 Z M15 7 C16 11 16 11 16 11 Z " fill="#EEE5E5" transform="translate(3,2)"/>
</svg>
