<?xml version="1.0" encoding="UTF-8"?>
<svg version="1.1" xmlns="http://www.w3.org/2000/svg" width="512" height="512">
<path d="M0 0 C1.33016637 0.51011373 2.66104584 1.01837119 3.99256897 1.52493286 C6.84517861 2.6143605 9.69268709 3.7158761 12.53677368 4.82736206 C17.10627939 6.61285006 21.68628289 8.37023131 26.26831055 10.12329102 C31.08102362 11.96601654 35.89302747 13.8104856 40.70146179 15.66435242 C55.97666726 21.55310785 71.30058421 27.30787984 86.63571167 33.03842163 C91.09289627 34.70424351 95.54870552 36.3737208 100.00415039 38.04418945 C100.74388438 38.32153333 101.48361837 38.5988772 102.24576855 38.88462543 C103.74410851 39.44640437 105.24244498 40.00819262 106.74077797 40.56999016 C110.50312872 41.98052705 114.26572677 43.39040388 118.02832031 44.80029297 C119.55391463 45.37196793 121.07950871 45.94364355 122.60510254 46.51531982 C123.36913895 46.8016201 124.13317535 47.08792038 124.92036438 47.38289642 C136.25099007 51.62873876 147.58149421 55.87490495 158.91155148 60.12226391 C162.75044366 61.56133971 166.5894179 63.0001956 170.42861938 64.43844604 C171.51177319 64.84424345 171.51177319 64.84424345 172.61680889 65.25823879 C174.05174989 65.79582266 175.48670725 66.33336284 176.9216814 66.87085819 C180.37891362 68.16620235 183.83540227 69.46346691 187.29029846 70.76502991 C188.62889933 71.2691799 189.96751718 71.77328483 191.30615234 72.27734375 C191.96104991 72.52396979 192.61594748 72.77059584 193.29069042 73.0246954 C197.35556616 74.55250016 201.42769723 76.05906932 205.50582027 77.55113983 C208.19336254 78.53602362 210.87745056 79.53010839 213.56110573 80.52552795 C215.41216804 81.20816193 217.26787325 81.87816489 219.123703 82.54772949 C231.77741614 87.25601355 231.77741614 87.25601355 235.39488566 93.07968724 C236.44998015 95.72370402 236.51864146 97.76340387 236.52289391 100.60976982 C236.5293428 101.70085324 236.53579169 102.79193666 236.542436 103.91608322 C236.5393388 105.114315 236.5362416 106.31254678 236.53305054 107.54708862 C236.53758165 108.82034126 236.54211276 110.0935939 236.54678118 111.40542996 C236.55903102 114.94212591 236.5587484 118.47872741 236.55639243 122.01543975 C236.55598477 125.82875897 236.56701857 129.64204771 236.57650757 133.45535278 C236.59312922 140.92719275 236.59861763 148.39900116 236.59973232 155.87085806 C236.60068221 161.94337085 236.60478954 168.01587322 236.61113358 174.08838272 C236.62874889 191.2996703 236.63797195 208.51093293 236.63647263 225.72222959 C236.63635276 227.11438658 236.63635276 227.11438658 236.63623047 228.53466797 C236.63614871 229.46390391 236.63606695 230.39313985 236.63598271 231.35053445 C236.63516964 246.41327636 236.65431164 261.47591831 236.6825072 276.53863131 C236.71122028 291.99962372 236.72504838 307.46056735 236.72331965 322.92158711 C236.72265522 331.60392484 236.72817073 340.28615778 236.74967575 348.96847153 C236.7678668 356.36027361 236.77225202 363.75192339 236.7586569 371.14373814 C236.75211678 374.91566221 236.75204734 378.68729392 236.7693634 382.45919037 C236.78793755 386.54714318 236.7755671 390.63441606 236.76010132 394.72238159 C236.77038844 395.91615193 236.78067557 397.10992227 236.79127443 398.33986747 C236.73868202 404.60857323 236.56289598 408.54239926 232.265625 413.26171875 C228.09097854 416.55225766 223.6628464 418.4643753 218.69921875 420.23828125 C217.94193985 420.5166684 217.18466095 420.79505554 216.4044342 421.08187866 C214.73194691 421.6959502 213.05817114 422.30652083 211.38330078 422.9140625 C206.59698489 424.65105307 201.8208362 426.41571517 197.04296875 428.17578125 C195.45088089 428.76108612 195.45088089 428.76108612 193.82662964 429.35821533 C180.28185819 434.34523951 166.78377932 439.45627644 153.28128052 444.55633545 C145.75631874 447.39851969 138.22995409 450.23698375 130.703125 453.07421875 C129.97575701 453.34841015 129.24838902 453.62260155 128.49897957 453.90510178 C116.59987521 458.38982089 104.68888544 462.84158662 92.765625 467.26171875 C70.48291068 475.52231983 48.25102554 483.91778962 26.015625 492.3046875 C25.28592845 492.5799143 24.5562319 492.85514111 23.80442333 493.13870811 C17.703819 495.43954853 17.703819 495.43954853 11.60423565 497.74309349 C9.74863748 498.44210526 7.89039244 499.1340774 6.03213501 499.82598877 C3.39440198 500.81658527 0.78893257 501.8667065 -1.81167603 502.9508667 C-15.91274644 508.73727554 -25.30638489 508.13604153 -39.46875 502.5234375 C-40.79891637 502.01332377 -42.12979584 501.50506631 -43.46131897 500.99850464 C-46.31392861 499.909077 -49.16143709 498.8075614 -52.00552368 497.69607544 C-56.57502939 495.91058744 -61.15503289 494.15320619 -65.73706055 492.40014648 C-70.54977362 490.55742096 -75.36177747 488.7129519 -80.17021179 486.85908508 C-95.44541726 480.97032965 -110.76933421 475.21555766 -126.10446167 469.48501587 C-130.56164627 467.81919399 -135.01745552 466.1497167 -139.47290039 464.47924805 C-140.21263438 464.20190417 -140.95236837 463.9245603 -141.71451855 463.63881207 C-143.21285851 463.07703313 -144.71119498 462.51524488 -146.20952797 461.95344734 C-149.97187872 460.54291045 -153.73447677 459.13303362 -157.49707031 457.72314453 C-159.02266463 457.15146957 -160.54825871 456.57979395 -162.07385254 456.00811768 C-162.83788895 455.7218174 -163.60192535 455.43551712 -164.38911438 455.14054108 C-175.71974007 450.89469874 -187.05024421 446.64853255 -198.38030148 442.40117359 C-202.21919366 440.96209779 -206.0581679 439.5232419 -209.89736938 438.08499146 C-210.61947192 437.81445985 -211.34157446 437.54392824 -212.08555889 437.26519871 C-213.52049989 436.72761484 -214.95545725 436.19007466 -216.3904314 435.65257931 C-219.84766362 434.35723515 -223.30415227 433.05997059 -226.75904846 431.75840759 C-228.09764933 431.2542576 -229.43626718 430.75015267 -230.77490234 430.24609375 C-231.42979991 429.99946771 -232.08469748 429.75284166 -232.75944042 429.4987421 C-236.82431616 427.97093734 -240.89644723 426.46436818 -244.97457027 424.97229767 C-247.66211254 423.98741388 -250.34620056 422.99332911 -253.02985573 421.99790955 C-254.88091804 421.31527557 -256.73662325 420.64527261 -258.592453 419.97570801 C-271.24616614 415.26742395 -271.24616614 415.26742395 -274.86363566 409.44375026 C-275.91873015 406.79973348 -275.98739146 404.76003363 -275.99164391 401.91366768 C-275.9980928 400.82258426 -276.00454169 399.73150084 -276.011186 398.60735428 C-276.0080888 397.4091225 -276.0049916 396.21089072 -276.00180054 394.97634888 C-276.00633165 393.70309624 -276.01086276 392.4298436 -276.01553118 391.11800754 C-276.02778102 387.58131159 -276.0274984 384.04471009 -276.02514243 380.50799775 C-276.02473477 376.69467853 -276.03576857 372.88138979 -276.04525757 369.06808472 C-276.06187922 361.59624475 -276.06736763 354.12443634 -276.06848232 346.65257944 C-276.06943221 340.58006665 -276.07353954 334.50756428 -276.07988358 328.43505478 C-276.09749889 311.2237672 -276.10672195 294.01250457 -276.10522263 276.80120791 C-276.10514272 275.87310325 -276.1050628 274.94499858 -276.10498047 273.98876953 C-276.10489871 273.05953359 -276.10481695 272.13029765 -276.10473271 271.17290305 C-276.10391964 256.11016114 -276.12306164 241.04751919 -276.1512572 225.98480619 C-276.17997028 210.52381378 -276.19379838 195.06287015 -276.19206965 179.60185039 C-276.19140522 170.91951266 -276.19692073 162.23727972 -276.21842575 153.55496597 C-276.2366168 146.16316389 -276.24100202 138.77151411 -276.2274069 131.37969936 C-276.22086678 127.60777529 -276.22079734 123.83614358 -276.2381134 120.06424713 C-276.25668755 115.97629432 -276.2443171 111.88902144 -276.22885132 107.80105591 C-276.23913844 106.60728557 -276.24942557 105.41351523 -276.26002443 104.18357003 C-276.20744382 97.9162704 -276.03598582 93.9767427 -271.734375 89.26171875 C-267.94586439 86.33130327 -264.2029526 84.47554201 -259.72241211 82.83349609 C-258.54133377 82.39612625 -257.36025543 81.95875641 -256.14338684 81.50813293 C-254.84953061 81.03788285 -253.55564013 80.56772702 -252.26171875 80.09765625 C-250.89126168 79.5930433 -249.52108533 79.08766738 -248.15116882 78.58158875 C-245.2079951 77.49581059 -242.26317019 76.41468792 -239.31695557 75.33718872 C-234.59869262 73.61127299 -229.88457907 71.87422987 -225.17138672 70.13452148 C-224.37321785 69.83990996 -223.57504898 69.54529844 -222.75269318 69.2417593 C-221.12589404 68.64123325 -219.49911395 68.04065563 -217.8723526 67.44002724 C-215.39266646 66.52479466 -212.91263664 65.61049823 -210.43255615 64.69633484 C-194.74969395 58.91288261 -179.1052358 53.0295331 -163.46904373 47.12127304 C-157.79764652 44.97856153 -152.12539167 42.83812009 -146.45319176 40.69753456 C-145.02149544 40.15723216 -143.58981538 39.61688669 -142.15815163 39.07649803 C-130.58210301 34.70737686 -118.9998426 30.3549652 -107.4140625 26.01171875 C-106.60860615 25.7097653 -105.8031498 25.40781185 -104.97328568 25.0967083 C-97.16440896 22.16949768 -89.35504959 19.24357678 -81.54505348 16.31935406 C-80.10349785 15.77948024 -78.66201844 15.23940286 -77.22061729 14.69911671 C-73.7395324 13.39430364 -70.25760817 12.09185788 -66.77352905 10.7950592 C-60.70492575 8.532156 -54.65028842 6.24574783 -48.63687897 3.83935261 C-46.01340941 2.79005208 -43.38460127 1.75448037 -40.75566101 0.71897697 C-38.96252031 0.00518185 -37.17810958 -0.73042632 -35.39416504 -1.46690369 C-22.22106525 -6.64897402 -12.94756753 -5.13117471 0 0 Z M-43.15283203 35.2199707 C-44.30448853 35.65439987 -45.45614502 36.08882904 -46.6427002 36.53642273 C-47.9258774 37.02424297 -49.20903932 37.51210342 -50.4921875 38 C-51.83854685 38.50912371 -53.18502604 39.0179306 -54.53161621 39.52644348 C-57.44146783 40.62593729 -60.35056141 41.72740565 -63.25909424 42.8303833 C-67.89977465 44.59009449 -72.54220404 46.3451554 -77.18505859 48.09912109 C-77.97088633 48.39599949 -78.75671406 48.69287788 -79.56635475 48.99875259 C-81.17335464 49.60585219 -82.78036012 50.21293699 -84.38737106 50.82000732 C-86.85199825 51.75120743 -89.31647134 52.68281441 -91.78091431 53.61450195 C-108.53269992 59.94661907 -125.298379 66.24153306 -142.06751633 72.52753067 C-144.36125215 73.38742247 -146.65489743 74.24755534 -148.94851685 75.10775757 C-167.91674217 82.22134068 -186.89598454 89.30425141 -205.8901062 96.34844971 C-218.89795207 101.17493319 -231.83890511 106.14011369 -244.734375 111.26171875 C-244.734375 125.12171875 -244.734375 138.98171875 -244.734375 153.26171875 C-227.80322891 147.44059779 -211.04621782 141.18800465 -194.29239273 134.88033295 C-190.35334966 133.39788821 -186.413336 131.91802768 -182.47338867 130.43798828 C-177.54503121 128.58649547 -172.61675589 126.7347855 -167.68888855 124.88198853 C-156.32249214 120.60850348 -144.95329227 116.34255432 -133.58203125 112.08203125 C-132.0172617 111.49571515 -130.45249322 110.90939619 -128.88772583 110.32307434 C-126.5652806 109.45285531 -124.24283516 108.58263684 -121.92038536 107.71243 C-93.17432726 96.94115731 -64.44478217 86.12781035 -35.734375 75.26171875 C-35.734375 61.40171875 -35.734375 47.54171875 -35.734375 33.26171875 C-38.503206 33.26171875 -40.5595641 34.23745945 -43.15283203 35.2199707 Z M-3.734375 33.26171875 C-3.734375 47.12171875 -3.734375 60.98171875 -3.734375 75.26171875 C43.24574444 92.98152126 90.2408585 110.6607162 137.265625 128.26171875 C138.0514521 128.55587173 138.83727921 128.85002472 139.64691925 129.15309143 C149.99206519 133.02547168 160.33815993 136.89530174 170.68572998 140.76119995 C173.68357953 141.88123906 176.68116619 143.00197739 179.67852783 144.12332153 C183.1566292 145.42443577 186.6353232 146.72395207 190.11450768 148.02216721 C192.00177396 148.7268068 193.88844422 149.43304206 195.77510071 150.13931274 C196.88693222 150.55377655 197.99876373 150.96824036 199.14428711 151.39526367 C200.11514755 151.75794846 201.086008 152.12063324 202.08628845 152.49430847 C204.03774611 153.31707539 204.03774611 153.31707539 205.265625 153.26171875 C205.265625 139.40171875 205.265625 125.54171875 205.265625 111.26171875 C189.55301559 104.86624962 173.69749335 98.90754438 157.78546143 93.03295898 C150.03518379 90.17140843 142.28900161 87.29879824 134.54296875 84.42578125 C133.74682663 84.13055321 132.95068451 83.83532516 132.13041687 83.53115082 C115.25333931 77.27130229 98.40439636 70.93770143 81.56333923 64.5816803 C79.39626514 63.76384728 77.22909429 62.94627119 75.06188965 62.12878418 C68.09906787 59.50233395 61.13654049 56.87510451 54.17431641 54.24707031 C53.51358816 53.99766693 52.85285992 53.74826355 52.1721096 53.49130249 C49.55726608 52.50427088 46.9424265 51.51722885 44.32762909 50.53007507 C36.63335094 47.6252993 28.9380551 44.7232564 21.24041748 41.82739258 C19.15193806 41.04103338 17.06391571 40.25345904 14.97637939 39.46459961 C12.16375267 38.40179714 9.34966809 37.34295434 6.53515625 36.28515625 C5.71488449 35.97407928 4.89461273 35.66300232 4.04948425 35.34249878 C0.26239241 33.81149007 0.26239241 33.81149007 -3.734375 33.26171875 Z M-3.734375 108.26171875 C-3.734375 171.95171875 -3.734375 235.64171875 -3.734375 301.26171875 C17.77575874 311.98293438 17.77575874 311.98293438 40.265625 317.26171875 C40.26709156 316.54057325 40.26855812 315.81942776 40.27006912 315.07642937 C40.30713096 297.52424309 40.36613732 279.9722678 40.44952774 262.4202404 C40.48932645 253.9321753 40.52171469 245.44420302 40.53662109 236.95605469 C40.54963333 229.55722887 40.57658693 222.15860723 40.62023807 214.7598964 C40.64286269 210.84277874 40.65853509 206.925913 40.65750885 203.00872421 C40.65676281 199.31990519 40.67469019 195.63164324 40.70679283 191.94296837 C40.71934161 189.94744608 40.71222339 187.95183031 40.70448303 185.95628357 C40.831514 175.04858562 40.831514 175.04858562 45.265625 170.26171875 C48.98005767 166.98427816 52.40517145 166.82090208 57.16070557 166.88641357 C63.77345099 167.685725 69.94578908 170.37620522 76.1328125 172.73828125 C77.65872887 173.30806998 79.18511591 173.87659966 80.71194458 174.44393921 C83.9011739 175.63281487 87.08610832 176.83232841 90.26806641 178.04052734 C94.3121082 179.57580299 98.36328716 181.09099842 102.41757011 182.5989933 C105.56844219 183.77220418 108.71652952 184.9527362 111.86374283 186.13572311 C113.35489291 186.69599332 114.8465651 187.25487625 116.33880234 187.81224442 C123.34115429 190.43454552 130.29447704 193.14430777 137.08642578 196.27880859 C138.01979767 196.70946625 138.95316956 197.1401239 139.91482544 197.58383179 C142.98764837 199.77706409 143.8163983 201.79020553 145.265625 205.26171875 C145.65038586 208.37384605 145.65038586 208.37384605 145.66435242 211.75375366 C145.67689056 213.04095306 145.68942871 214.32815247 145.7023468 215.65435791 C145.70117292 217.06823756 145.69971384 218.482117 145.69799805 219.89599609 C145.70702035 221.39440721 145.71734872 222.89281094 145.72888184 224.39120483 C145.75642315 228.44859097 145.76573243 232.50583694 145.77173591 236.56330442 C145.78112706 240.80744686 145.80733105 245.05148491 145.83174133 249.29556274 C145.87538964 257.32768358 145.90394684 265.35978414 145.92706472 273.39198744 C145.95412534 282.53832465 145.99803632 291.68455676 146.04335344 300.83081889 C146.1361758 319.64106334 146.20786757 338.45133559 146.265625 357.26171875 C150.8501095 359.01622508 155.43474759 360.77032932 160.01951599 362.52409363 C161.57251433 363.11820656 163.12547383 363.71242105 164.6783905 364.30674744 C184.69555672 373.99445414 184.69555672 373.99445414 205.265625 379.26171875 C205.265625 315.57171875 205.265625 251.88171875 205.265625 186.26171875 C181.505625 177.35171875 157.745625 168.44171875 133.265625 159.26171875 C112.734375 151.5625 112.734375 151.5625 104.57641602 148.50317383 C99.79748107 146.71105908 95.01846789 144.91915333 90.23936939 143.12747478 C86.49679174 141.72437929 82.75424697 140.32119609 79.01171875 138.91796875 C78.28214399 138.64442377 77.55256924 138.37087879 76.80088615 138.08904457 C66.93530354 134.38988428 57.07120057 130.6868036 47.20828247 126.98054504 C41.91109117 124.98998461 36.61351857 123.00043991 31.31585884 121.01112652 C27.03859751 119.40486171 22.76187824 117.79716438 18.48555851 116.18839455 C16.50219217 115.44253267 14.51854947 114.69741176 12.53477478 113.95263672 C10.12232229 113.04691944 7.71032184 112.13999693 5.29884338 111.23168945 C3.72114418 110.64000977 3.72114418 110.64000977 2.11157227 110.03637695 C1.1940065 109.69145706 0.27644073 109.34653717 -0.66893005 108.99116516 C-2.52645074 108.20621721 -2.52645074 108.20621721 -3.734375 108.26171875 Z M-42.31469727 110.31176758 C-43.52658218 110.76625275 -44.7384671 111.22073792 -45.98707581 111.68899536 C-47.34165405 112.19888763 -48.6962222 112.70880674 -50.05078125 113.21875 C-51.46506849 113.74981081 -52.87941204 114.28072169 -54.29380798 114.81149292 C-57.34971253 115.95861518 -60.40522759 117.10676692 -63.46044922 118.25570679 C-68.34282379 120.09174966 -73.2260296 121.92557428 -78.109375 123.7590332 C-84.06213172 125.99416073 -90.01469456 128.2298031 -95.96700859 130.46610928 C-106.40762345 134.38861953 -116.84974996 138.30708429 -127.29296875 142.22265625 C-128.04910524 142.50616377 -128.80524174 142.78967129 -129.58429146 143.08176994 C-133.35734778 144.49642234 -137.13043288 145.91099792 -140.90353394 147.32553101 C-147.69107 149.87020686 -154.47832786 152.41562446 -161.265625 154.9609375 C-189.08854167 165.39453125 -216.91145833 175.828125 -244.734375 186.26171875 C-244.734375 249.95171875 -244.734375 313.64171875 -244.734375 379.26171875 C-233.17539323 375.21607513 -221.66079476 371.18226672 -210.21875 366.83984375 C-208.8983166 366.3408935 -207.57779234 365.84218366 -206.25718689 365.34368896 C-203.4553329 364.28561339 -200.6540065 363.22615842 -197.8531189 362.16552734 C-191.02495461 359.58003771 -184.19380621 357.00244654 -177.36302757 354.4238739 C-174.97561382 353.52256146 -172.58830463 352.62097245 -170.20100403 351.71936035 C-153.69065603 345.48501454 -137.16693436 339.28643822 -120.6410675 333.09336853 C-118.49054429 332.28745279 -116.34005346 331.4814507 -114.1895752 330.67541504 C-104.03798097 326.87047822 -93.88615516 323.06615946 -83.734375 319.26171875 C-67.894375 313.32171875 -52.054375 307.38171875 -35.734375 301.26171875 C-35.734375 237.57171875 -35.734375 173.88171875 -35.734375 108.26171875 C-37.93703001 108.26171875 -40.30482925 109.55648766 -42.31469727 110.31176758 Z M71.265625 204.26171875 C71.265625 245.51171875 71.265625 286.76171875 71.265625 329.26171875 C92.75442406 340.03959774 92.75442406 340.03959774 115.265625 345.26171875 C115.265625 304.01171875 115.265625 262.76171875 115.265625 220.26171875 C93.75549126 209.54050312 93.75549126 209.54050312 71.265625 204.26171875 Z M-26.29223633 330.23583984 C-27.47353622 330.6734816 -28.65483612 331.11112335 -29.87193298 331.56202698 C-31.18679039 332.05298174 -32.50161369 332.54402786 -33.81640625 333.03515625 C-35.19294633 333.54675295 -36.56958128 334.05809446 -37.94630432 334.56919861 C-41.69552591 335.96217819 -45.44311248 337.35950858 -49.19036102 338.7577858 C-51.55104563 339.63827431 -53.91218779 340.51752393 -56.27349854 341.39633179 C-85.94851405 352.44050385 -115.58053687 363.59803064 -145.20337296 374.78123856 C-160.80938089 380.67238412 -176.42685096 386.5328545 -192.046875 392.38671875 C-193.2703363 392.84527252 -194.49379761 393.30382629 -195.7543335 393.77627563 C-202.41405309 396.2722091 -209.07402796 398.7674601 -215.734375 401.26171875 C-213.30199498 403.69409877 -211.26704897 404.33734212 -208.04052734 405.53881836 C-206.82879852 405.99312225 -205.6170697 406.44742615 -204.36862183 406.91549683 C-203.0192175 407.41510546 -201.66977994 407.91462436 -200.3203125 408.4140625 C-198.90648414 408.94190326 -197.49284303 409.47024578 -196.07937622 409.99905396 C-193.03024659 411.13862374 -189.97986399 412.27474978 -186.9284668 413.40823364 C-182.06555244 415.21466374 -177.2054092 417.02846545 -172.34570312 418.84350586 C-166.41583831 421.05771947 -160.48533544 423.27020748 -154.5540123 425.48051167 C-140.04645026 430.88710447 -125.55037054 436.3241586 -111.05571461 441.76523685 C-105.77401123 443.74753445 -100.49073535 445.72559935 -95.20678711 447.7019043 C-92.26925649 448.80097047 -89.33183976 449.90034038 -86.39453125 451 C-85.32606492 451.40000371 -85.32606492 451.40000371 -84.23601341 451.8080883 C-75.5974787 455.04377802 -66.97133804 458.30931386 -58.36129761 461.62010193 C-53.83804197 463.35937374 -49.31094761 465.08852564 -44.78369141 466.81735229 C-41.76785886 467.97487856 -38.75898163 469.1492694 -35.75 470.32446289 C-33.96258641 471.00758136 -32.17484779 471.68985024 -30.38671875 472.37109375 C-29.6017955 472.68414963 -28.81687225 472.99720551 -28.00816345 473.31974792 C-18.40560172 476.9243048 -10.61261577 472.9297569 -1.48828125 469.42578125 C-0.14943024 468.91782772 1.18967815 468.41055216 2.52902222 467.90390015 C5.40963883 466.81272976 8.28853727 465.71718384 11.16616821 464.61816406 C15.7651753 462.86187044 20.36792037 461.11553126 24.97143555 459.37109375 C29.80268476 457.5400039 34.6337999 455.70857154 39.46376038 453.87408447 C55.29871737 447.86074665 71.15675698 441.90962118 87.01925659 435.96939087 C91.55715137 434.26988115 96.09419184 432.56809887 100.63110352 430.8659668 C113.00949614 426.22259241 125.38917248 421.58295688 137.78123474 416.97616577 C142.35304317 415.27645644 146.92354835 413.57325882 151.49398804 411.86987305 C154.55741827 410.73017444 157.62300541 409.59642499 160.6887207 408.46289062 C162.4931171 407.79067534 164.29740534 407.11816961 166.1015625 406.4453125 C166.91230728 406.14773544 167.72305206 405.85015839 168.55836487 405.54356384 C172.77122569 403.99673994 172.77122569 403.99673994 176.265625 401.26171875 C175.15241882 400.84426643 175.15241882 400.84426643 174.01672363 400.41838074 C172.95481812 400.02016617 171.8929126 399.6219516 170.79882812 399.21166992 C168.98098564 398.52997993 168.98098564 398.52997993 167.12641907 397.83451843 C164.35020227 396.79343746 161.57398801 395.75234972 158.79777527 394.71125793 C151.67955624 392.04190159 144.5613209 389.3725888 137.44302273 386.70344353 C133.25497424 385.13305061 129.06693737 383.56262673 124.87890625 381.9921875 C124.02810801 381.67315334 123.17730976 381.35411919 122.30072975 381.02541733 C110.72288517 376.68386938 99.14557886 372.34088949 87.56876373 367.99659729 C71.20639348 361.85650951 54.84256207 355.72033247 38.47688293 349.58906937 C34.37994619 348.05413039 30.28326585 346.51850967 26.18679333 344.98233223 C19.37768836 342.42894441 12.56736308 339.87885067 5.75552368 337.33276367 C3.53226002 336.50121495 1.30941236 335.66855302 -0.91299438 334.8347168 C-3.9122166 333.70966647 -6.91291136 332.58864257 -9.9140625 331.46875 C-10.79042862 331.13897659 -11.66679474 330.80920319 -12.56971741 330.46943665 C-18.45681882 328.27996119 -20.49428981 328.07934026 -26.29223633 330.23583984 Z " fill="#000000" transform="translate(275.734375,4.73828125)"/>
<path d="M0 0 C4.12629056 3.73331051 6.41012567 6.7056831 7.13293457 12.32104492 C7.15650547 13.83233915 7.15840611 15.3440736 7.14257812 16.85546875 C7.1495874 17.68551422 7.15659668 18.51555969 7.16381836 19.37075806 C7.18135604 22.10168375 7.16979092 24.83156463 7.15625 27.5625 C7.15894614 29.46769407 7.16282957 31.3728868 7.16784668 33.27807617 C7.17373599 37.26592137 7.16519703 41.25340755 7.14648438 45.24121094 C7.12369519 50.34578531 7.13682131 55.44951837 7.16077423 60.55406189 C7.17524752 64.48667712 7.17061919 68.41909379 7.16026306 72.35171509 C7.15760001 74.2335317 7.16085068 76.1153665 7.17018127 77.99716187 C7.18037215 80.63010211 7.16481101 83.2616913 7.14257812 85.89453125 C7.15067505 86.66769684 7.15877197 87.44086243 7.16711426 88.23745728 C7.08577623 93.45260465 6.02383227 96.42873454 2.625 100.375 C-1.29284489 103.42106652 -5.20678763 105.27246649 -9.84716797 106.9777832 C-10.46728162 107.20814333 -11.08739527 107.43850346 -11.72630024 107.67584419 C-13.77061842 108.43321609 -15.81880578 109.17947728 -17.8671875 109.92578125 C-19.32051798 110.46186197 -20.77358164 110.99866655 -22.22639465 111.53614807 C-25.30460155 112.6733464 -28.38450592 113.80576412 -31.46591187 114.93426514 C-36.2610511 116.69038926 -41.05239138 118.45670516 -45.84301758 120.22509766 C-50.60436632 121.98222662 -55.3658869 123.73887378 -60.12879944 125.49176025 C-72.45820083 130.02974252 -84.76747069 134.61965307 -97.0625 139.25 C-105.61331293 142.46890408 -105.61331293 142.46890408 -109.8659668 144.05957031 C-112.12285311 144.90560826 -114.37716345 145.75856725 -116.62817383 146.62011719 C-117.59650146 146.98524414 -118.5648291 147.35037109 -119.5625 147.7265625 C-120.37460938 148.03674316 -121.18671875 148.34692383 -122.0234375 148.66650391 C-127.61851471 150.35223003 -132.49728081 150.27908702 -137.75 147.75 C-141.87629056 144.01668949 -144.16012567 141.0443169 -144.88293457 135.42895508 C-144.90650547 133.91766085 -144.90840611 132.4059264 -144.89257812 130.89453125 C-144.8995874 130.06448578 -144.90659668 129.23444031 -144.91381836 128.37924194 C-144.93135604 125.64831625 -144.91979092 122.91843537 -144.90625 120.1875 C-144.90894614 118.28230593 -144.91282957 116.3771132 -144.91784668 114.47192383 C-144.92373599 110.48407863 -144.91519703 106.49659245 -144.89648438 102.50878906 C-144.87369519 97.40421469 -144.88682131 92.30048163 -144.91077423 87.19593811 C-144.92524752 83.26332288 -144.92061919 79.33090621 -144.91026306 75.39828491 C-144.90760001 73.5164683 -144.91085068 71.6346335 -144.92018127 69.75283813 C-144.93037215 67.11989789 -144.91481101 64.4883087 -144.89257812 61.85546875 C-144.90067505 61.08230316 -144.90877197 60.30913757 -144.91711426 59.51254272 C-144.83598674 54.31089276 -143.69750763 51.35644939 -140.375 47.375 C-137.81243104 45.09706467 -135.34979969 43.80552113 -132.14941406 42.62011719 C-131.31628189 42.30780655 -130.48314972 41.99549591 -129.62477112 41.67372131 C-128.7225029 41.34311203 -127.82023468 41.01250275 -126.890625 40.671875 C-125.93965439 40.31737778 -124.98868378 39.96288055 -124.00889587 39.59764099 C-120.88316378 38.43398251 -117.75411243 37.27953428 -114.625 36.125 C-112.44416729 35.31488174 -110.2635871 34.50408339 -108.08325195 33.69262695 C-103.64394759 32.04111665 -99.20351218 30.39270379 -94.76220703 28.74658203 C-87.32432292 25.98775104 -79.89740744 23.20011368 -72.47216797 20.4074707 C-69.21356564 19.18193657 -65.95349315 17.96045721 -62.69189453 16.74291992 C-55.42625243 14.02973589 -48.16703559 11.30388226 -40.93299866 8.50730896 C-37.72149831 7.26778216 -34.50532921 6.04066878 -31.28848267 4.81509399 C-29.78809072 4.23971932 -28.28991846 3.65851518 -26.79428101 3.07089233 C-8.52321337 -4.1037694 -8.52321337 -4.1037694 0 0 Z M-32.65039062 38.65063477 C-33.29476578 38.89298355 -33.93914093 39.13533234 -34.6030426 39.38502502 C-36.74699285 40.19230443 -38.88911985 41.00431075 -41.03125 41.81640625 C-42.5321686 42.38282476 -44.03318748 42.9489776 -45.53430176 43.51487732 C-48.69598854 44.70754995 -51.85685387 45.9023655 -55.01708984 47.09887695 C-59.01393326 48.61212603 -63.01209006 50.12186289 -67.01081085 51.63014317 C-70.87226116 53.08681867 -74.73303329 54.54528777 -78.59375 56.00390625 C-79.30678787 56.27314974 -80.01982574 56.54239323 -80.75447083 56.81979561 C-91.6550672 60.93789383 -102.51403223 65.15129031 -113.375 69.375 C-113.375 83.235 -113.375 97.095 -113.375 111.375 C-107.45130091 109.59789027 -101.80757134 107.88018028 -96.06445312 105.71118164 C-95.07686256 105.33977303 -95.07686256 105.33977303 -94.06932068 104.96086121 C-91.93039452 104.15552697 -89.79330561 103.34543968 -87.65625 102.53515625 C-86.14760211 101.96583372 -84.63885178 101.39678259 -83.13000488 100.82798767 C-79.98254023 99.64070613 -76.83590817 98.45125453 -73.68994141 97.26000977 C-69.68363685 95.74301408 -65.67591617 94.22980548 -61.66764069 92.71802616 C-57.80917759 91.26255818 -53.95144058 89.80517025 -50.09375 88.34765625 C-49.37151749 88.07496477 -48.64928497 87.80227329 -47.90516663 87.52131844 C-45.83156247 86.73799621 -43.75847985 85.95330932 -41.68554688 85.16821289 C-39.92543274 84.50227867 -39.92543274 84.50227867 -38.12976074 83.82289124 C-33.52855422 82.048598 -28.95373816 80.20649526 -24.375 78.375 C-24.375 64.515 -24.375 50.655 -24.375 36.375 C-27.40172141 36.375 -29.82339265 37.58292366 -32.65039062 38.65063477 Z " fill="#000000" transform="translate(204.375,174.625)"/>
</svg>
